<svg width="114" height="114" viewBox="0 0 114 114" fill="none" xmlns="http://www.w3.org/2000/svg">
<path fill-rule="evenodd" clip-rule="evenodd" d="M0.75 50.75C0.75 27.1813 0.749999 15.3937 8.075 8.075C15.4 0.75625 27.1813 0.75 50.75 0.75H63.25C86.8187 0.75 98.6062 0.749999 105.925 8.075C113.244 15.4 113.25 27.1813 113.25 50.75V63.25C113.25 86.8187 113.25 98.6062 105.925 105.925C98.6 113.244 86.8187 113.25 63.25 113.25H50.75C27.1813 113.25 15.3937 113.25 8.075 105.925C0.75625 98.6 0.75 86.8187 0.75 63.25V50.75ZM94.5 28.875C94.5 31.3614 93.5123 33.746 91.7541 35.5041C89.996 37.2623 87.6114 38.25 85.125 38.25C82.6386 38.25 80.254 37.2623 78.4959 35.5041C76.7377 33.746 75.75 31.3614 75.75 28.875C75.75 26.3886 76.7377 24.004 78.4959 22.2459C80.254 20.4877 82.6386 19.5 85.125 19.5C87.6114 19.5 89.996 20.4877 91.7541 22.2459C93.5123 24.004 94.5 26.3886 94.5 28.875ZM69.5 63.25C69.5 66.5652 68.183 69.7446 65.8388 72.0888C63.4946 74.433 60.3152 75.75 57 75.75C53.6848 75.75 50.5054 74.433 48.1612 72.0888C45.817 69.7446 44.5 66.5652 44.5 63.25C44.5 59.9348 45.817 56.7554 48.1612 54.4112C50.5054 52.067 53.6848 50.75 57 50.75C60.3152 50.75 63.4946 52.067 65.8388 54.4112C68.183 56.7554 69.5 59.9348 69.5 63.25ZM82 63.25C82 69.8804 79.3661 76.2393 74.6777 80.9277C69.9893 85.6161 63.6304 88.25 57 88.25C50.3696 88.25 44.0107 85.6161 39.3223 80.9277C34.6339 76.2393 32 69.8804 32 63.25C32 56.6196 34.6339 50.2607 39.3223 45.5723C44.0107 40.8839 50.3696 38.25 57 38.25C63.6304 38.25 69.9893 40.8839 74.6777 45.5723C79.3661 50.2607 82 56.6196 82 63.25Z" fill="#70BAF2"/>
</svg>
