<svg width="150" height="150" viewBox="0 0 150 150" fill="none" xmlns="http://www.w3.org/2000/svg">
<path d="M103.75 36.375C99.4786 31.497 97.1244 25.2337 97.125 18.75H77.8125V96.25C77.6666 100.445 75.897 104.419 72.8769 107.334C69.8568 110.249 65.8225 111.878 61.625 111.875C52.75 111.875 45.375 104.625 45.375 95.625C45.375 84.875 55.75 76.8125 66.4375 80.125V60.375C44.875 57.5 26 74.25 26 95.625C26 116.438 43.25 131.25 61.5625 131.25C81.1875 131.25 97.125 115.312 97.125 95.625V56.3125C104.956 61.9366 114.359 64.954 124 64.9375V45.625C124 45.625 112.25 46.1875 103.75 36.375Z" fill="#70BAF2"/>
</svg>
