<svg width="150" height="150" viewBox="0 0 150 150" fill="none" xmlns="http://www.w3.org/2000/svg">
<path d="M28.7124 31.15C29.844 31.0185 30.99 31.1988 32.0265 31.6713C33.0631 32.1439 33.9508 32.8908 34.5937 33.8313C43.8187 47.325 54.8937 52.9375 67.1874 54.2125C67.7874 48.9563 69.2062 43.7625 71.8749 39.1875C75.7874 32.475 82.1499 27.5375 91.2374 25.7125C103.8 23.1875 113.362 27.7375 118.906 33.3063L130.106 31.2125C131.278 30.9929 132.489 31.1132 133.594 31.5591C134.7 32.005 135.656 32.7579 136.347 33.7291C137.039 34.7002 137.439 35.849 137.499 37.0399C137.559 38.2308 137.278 39.414 136.687 40.45L125.937 59.3375C126.919 86.5938 119.344 105.619 103.194 118.725C94.6312 125.675 82.3687 129.619 68.9124 130.838C55.3499 132.063 40.0187 130.581 24.7812 126.131C23.4792 125.751 22.3362 124.959 21.5244 123.872C20.7127 122.786 20.2764 121.465 20.2814 120.109C20.2863 118.752 20.7322 117.435 21.5518 116.354C22.3714 115.274 23.5203 114.489 24.8249 114.119C32.4874 111.938 38.3249 110.056 43.5937 106.763C36.0999 102.788 30.5812 97.5875 26.6749 91.6625C21.2499 83.425 19.2374 74.2375 18.8374 65.9563C18.4374 57.675 19.6312 50 20.8937 44.4688C21.6124 41.3125 22.4499 38.15 23.6062 35.125C24.014 34.0587 24.7061 33.1245 25.6074 32.4237C26.5087 31.723 27.5785 31.2825 28.7124 31.15Z" fill="#70BAF2"/>
</svg>
