<svg width="75" height="75" viewBox="0 0 75 75" fill="none" xmlns="http://www.w3.org/2000/svg">
<path d="M30.2062 48.6281C29.8796 47.774 29.3782 46.9975 28.7341 46.3485C28.0899 45.6995 27.3172 45.1923 26.4655 44.8594L9.87648 38.3344C9.69052 38.2607 9.53099 38.1327 9.41859 37.9673C9.30619 37.8018 9.24609 37.6063 9.24609 37.4063C9.24609 37.2062 9.30619 37.0108 9.41859 36.8453C9.53099 36.6798 9.69052 36.5519 9.87648 36.4781L26.4655 29.9485C28.1765 29.2735 29.5359 27.9094 30.2062 26.1844L36.689 9.48283C36.7596 9.2956 36.8855 9.13433 37.0501 9.02051C37.2146 8.90668 37.41 8.8457 37.6101 8.8457C37.8102 8.8457 38.0055 8.90668 38.1701 9.02051C38.3346 9.13433 38.4606 9.2956 38.5312 9.48283L45.014 26.1844C45.6843 27.9094 47.0437 29.2781 48.7546 29.9485L65.3437 36.4781C65.5296 36.5519 65.6892 36.6798 65.8016 36.8453C65.914 37.0108 65.9741 37.2062 65.9741 37.4063C65.9741 37.6063 65.914 37.8018 65.8016 37.9673C65.6892 38.1327 65.5296 38.2607 65.3437 38.3344L48.7499 44.8594C47.8983 45.1923 47.1256 45.6995 46.4814 46.3485C45.8372 46.9975 45.3358 47.774 45.0093 48.6281L38.5312 65.3297C38.4606 65.5169 38.3346 65.6782 38.1701 65.792C38.0055 65.9059 37.8102 65.9668 37.6101 65.9668C37.41 65.9668 37.2146 65.9059 37.0501 65.792C36.8855 65.6782 36.7596 65.5169 36.689 65.3297L30.2062 48.6281Z" fill="#FFFAEE"/>
</svg>
